<svg width="24" height="24" viewBox="0 0 24 24" fill="none" xmlns="http://www.w3.org/2000/svg">
<g clip-path="url(#clip0_122_338)">
<path d="M1.56605 23.9625C1.41605 23.9625 1.26605 23.9063 1.15355 23.775C1.04105 23.6625 0.984803 23.5125 1.00355 23.3438L2.1848 5.19375C2.20355 4.89375 2.4473 4.66875 2.7473 4.66875H7.6973V4.59375C7.6973 3.35625 8.1848 2.2125 9.0473 1.33125C9.92855 0.4875 11.0723 0 12.3098 0C14.8411 0 16.9223 2.0625 16.9223 4.6125C16.9223 4.63125 16.9036 4.65 16.9036 4.66875V4.6875H21.8723C22.1723 4.6875 22.4161 4.9125 22.4348 5.2125L23.5973 23.2313C23.6161 23.2875 23.6161 23.325 23.6161 23.3813C23.5973 23.7 23.3536 23.9625 23.0348 23.9625H1.56605ZM2.16605 22.8375H22.4348L21.3473 5.8125H16.9036V7.1625H16.9223C17.2223 7.36875 17.3911 7.66875 17.3911 8.00625C17.3911 8.5875 16.9223 9.05625 16.3411 9.05625C15.7598 9.05625 15.2911 8.5875 15.2911 8.00625C15.2911 7.66875 15.4598 7.36875 15.7598 7.1625H15.7786V5.8125H8.8223V7.1625H8.84105C9.14105 7.36875 9.3098 7.66875 9.3098 8.00625C9.3098 8.5875 8.84105 9.05625 8.2598 9.05625C7.67855 9.05625 7.2098 8.5875 7.2098 8.00625C7.2098 7.66875 7.37855 7.36875 7.67855 7.1625H7.6973V5.8125H3.25355L2.16605 22.8375ZM12.3098 1.14375C10.3973 1.14375 8.8223 2.7 8.8223 4.63125V4.70625H15.8161L15.7973 4.66875V4.63125C15.7973 2.7 14.2223 1.14375 12.3098 1.14375Z" fill="black"/>
</g>
<defs>
<clipPath id="clip0_122_338">
<rect width="24" height="24" fill="white"/>
</clipPath>
</defs>
</svg>
