<svg width="28" height="29" viewBox="0 0 28 29" fill="none" xmlns="http://www.w3.org/2000/svg">
<path d="M8.57008 23.6023C9.69476 23.6023 10.6065 24.5677 10.6065 25.7585C10.6065 26.9493 9.69476 27.9147 8.57008 27.9147C7.44541 27.9147 6.53369 26.9493 6.53369 25.7585C6.53369 24.5677 7.44541 23.6023 8.57008 23.6023Z" stroke="#1E1F24" stroke-width="1.5"/>
<path d="M20.7879 23.6023C21.9125 23.6023 22.8243 24.5675 22.8243 25.7585C22.8243 26.9493 21.9125 27.9147 20.7879 27.9147C19.6632 27.9147 18.7515 26.9493 18.7515 25.7585C18.7515 24.5675 19.6632 23.6023 20.7879 23.6023Z" stroke="#1E1F24" stroke-width="1.5"/>
<path d="M1.44115 1.02324C0.910639 0.825746 0.329385 1.12101 0.142878 1.68271C-0.0436418 2.24443 0.235222 2.85987 0.765716 3.05735L1.44115 1.02324ZM26.4332 11.9339L27.4303 12.1516L27.4317 12.145L26.4332 11.9339ZM6.1375 11.7575V7.84525H4.10111V11.7575H6.1375ZM1.79576 1.15524L1.44115 1.02324L0.765716 3.05735L1.12033 3.18937L1.79576 1.15524ZM13.2369 21.0866H20.4361V18.9304H13.2369V21.0866ZM6.1375 7.84525C6.1375 6.82874 6.13889 5.9805 6.06842 5.2912C5.99547 4.57767 5.83743 3.92691 5.45462 3.33376L3.77329 4.55028C3.89583 4.74015 3.99045 5.00093 4.04385 5.52323C4.09973 6.06977 4.10111 6.78161 4.10111 7.84525H6.1375ZM1.12033 3.18937C2.02668 3.52677 2.62232 3.75036 3.06062 3.97807C3.47227 4.19193 3.65374 4.36505 3.77329 4.55028L5.45462 3.33376C5.06882 2.73598 4.55585 2.35313 3.95765 2.04235C3.38608 1.7454 2.65645 1.47565 1.79576 1.15524L1.12033 3.18937ZM4.10111 11.7575C4.10111 13.8454 4.11961 15.351 4.30567 16.5012C4.50432 17.7292 4.90092 18.6085 5.64248 19.4367L7.12027 17.9532C6.68562 17.4678 6.45118 16.9924 6.31284 16.1373C6.16193 15.2042 6.1375 13.8979 6.1375 11.7575H4.10111ZM13.2369 18.9304C11.3135 18.9304 9.97889 18.9278 8.97336 18.7769C8.00293 18.6311 7.49027 18.3663 7.12027 17.9532L5.64248 19.4367C6.44871 20.3371 7.47072 20.7291 8.68745 20.9116C9.86907 21.0891 11.3741 21.0866 13.2369 21.0866V18.9304ZM5.11931 7.60324H21.5879V5.44706H5.11931V7.60324ZM25.4359 11.7163L24.7575 15.2018L26.7519 15.637L27.4303 12.1516L25.4359 11.7163ZM21.5879 7.60324C22.7506 7.60324 23.7738 7.60468 24.5813 7.70026C24.9826 7.74775 25.2829 7.81373 25.4939 7.89224C25.713 7.97376 25.7479 8.0363 25.7304 8.01204L27.3444 6.69733C27.0254 6.2583 26.5768 6.00975 26.169 5.85799C25.7529 5.70319 25.2823 5.61362 24.8076 5.55743C23.863 5.44562 22.7128 5.44706 21.5879 5.44706V7.60324ZM27.4317 12.145C27.6614 10.9262 27.8565 9.90351 27.9043 9.08437C27.9533 8.24173 27.8627 7.41087 27.3444 6.69733L25.7304 8.01204C25.8145 8.12803 25.9075 8.33688 25.8717 8.95153C25.8345 9.58967 25.6762 10.4419 25.4347 11.7229L27.4317 12.145ZM20.4361 21.0866C21.4702 21.0866 22.338 21.0884 23.0376 20.9977C23.7648 20.9036 24.4281 20.6976 25.0072 20.1979L23.7207 18.5265C23.5507 18.6731 23.3098 18.7902 22.7902 18.8576C22.2428 18.9285 21.5213 18.9304 20.4361 18.9304V21.0866ZM24.7575 15.2018C24.5384 16.327 24.3909 17.0751 24.2149 17.6283C24.0477 18.1534 23.8907 18.3798 23.7207 18.5265L25.0072 20.1979C25.5862 19.6983 25.9106 19.052 26.1447 18.3169C26.3698 17.6096 26.5431 16.7094 26.7519 15.637L24.7575 15.2018Z" fill="#1E1F24"/>
</svg>
