<svg width="56" height="56" viewBox="0 0 56 56" fill="none" xmlns="http://www.w3.org/2000/svg">
<circle cx="27.9999" cy="27.831" r="27.831" fill="#FCFCFD"/>
<circle cx="28" cy="27.831" r="25.5117" fill="#FF7993"/>
<path d="M22.5701 38.6021C23.6948 38.6021 24.6065 39.5675 24.6065 40.7583C24.6065 41.9491 23.6948 42.9145 22.5701 42.9145C21.4454 42.9145 20.5337 41.9491 20.5337 40.7583C20.5337 39.5675 21.4454 38.6021 22.5701 38.6021Z" stroke="#1E1F24" stroke-width="1.5"/>
<path d="M34.7879 38.6022C35.9125 38.6022 36.8243 39.5675 36.8243 40.7584C36.8243 41.9492 35.9125 42.9146 34.7879 42.9146C33.6632 42.9146 32.7515 41.9492 32.7515 40.7584C32.7515 39.5675 33.6632 38.6022 34.7879 38.6022Z" stroke="#1E1F24" stroke-width="1.5"/>
<path d="M15.4411 16.0232C14.9106 15.8257 14.3294 16.121 14.1429 16.6827C13.9564 17.2444 14.2352 17.8598 14.7657 18.0573L15.4411 16.0232ZM40.4332 26.9339L41.4303 27.1516L41.4317 27.145L40.4332 26.9339ZM20.1375 26.7574V22.8452H18.1011V26.7574H20.1375ZM15.7958 16.1552L15.4411 16.0232L14.7657 18.0573L15.1203 18.1893L15.7958 16.1552ZM27.2369 36.0865H34.4361V33.9303H27.2369V36.0865ZM20.1375 22.8452C20.1375 21.8287 20.1389 20.9804 20.0684 20.2911C19.9955 19.5776 19.8374 18.9268 19.4546 18.3337L17.7733 19.5502C17.8958 19.7401 17.9905 20.0009 18.0438 20.5232C18.0997 21.0697 18.1011 21.7815 18.1011 22.8452H20.1375ZM15.1203 18.1893C16.0267 18.5267 16.6223 18.7503 17.0606 18.978C17.4723 19.1919 17.6537 19.365 17.7733 19.5502L19.4546 18.3337C19.0688 17.7359 18.5559 17.3531 17.9577 17.0423C17.3861 16.7453 16.6565 16.4756 15.7958 16.1552L15.1203 18.1893ZM18.1011 26.7574C18.1011 28.8453 18.1196 30.3509 18.3057 31.5012C18.5043 32.7292 18.9009 33.6085 19.6425 34.4366L21.1203 32.9531C20.6856 32.4677 20.4512 31.9923 20.3128 31.1372C20.1619 30.2042 20.1375 28.8978 20.1375 26.7574H18.1011ZM27.2369 33.9303C25.3135 33.9303 23.9789 33.9277 22.9734 33.7768C22.0029 33.631 21.4903 33.3663 21.1203 32.9531L19.6425 34.4366C20.4487 35.337 21.4707 35.729 22.6874 35.9116C23.8691 36.0891 25.3741 36.0865 27.2369 36.0865V33.9303ZM19.1193 22.6032H35.5879V20.447H19.1193V22.6032ZM39.4359 26.7162L38.7575 30.2017L40.7519 30.637L41.4303 27.1516L39.4359 26.7162ZM35.5879 22.6032C36.7506 22.6032 37.7738 22.6046 38.5813 22.7002C38.9826 22.7477 39.2829 22.8137 39.4939 22.8922C39.713 22.9737 39.7479 23.0362 39.7304 23.012L41.3444 21.6973C41.0254 21.2582 40.5768 21.0097 40.169 20.8579C39.7529 20.7031 39.2823 20.6136 38.8076 20.5574C37.863 20.4456 36.7128 20.447 35.5879 20.447V22.6032ZM41.4317 27.145C41.6614 25.9261 41.8565 24.9035 41.9043 24.0843C41.9533 23.2417 41.8627 22.4108 41.3444 21.6973L39.7304 23.012C39.8145 23.128 39.9075 23.3368 39.8717 23.9515C39.8345 24.5896 39.6762 25.4418 39.4347 26.7229L41.4317 27.145ZM34.4361 36.0865C35.4702 36.0865 36.338 36.0884 37.0376 35.9977C37.7648 35.9035 38.4281 35.6975 39.0072 35.1979L37.7207 33.5264C37.5507 33.673 37.3098 33.7902 36.7902 33.8576C36.2428 33.9285 35.5213 33.9303 34.4361 33.9303V36.0865ZM38.7575 30.2017C38.5384 31.3269 38.3909 32.075 38.2149 32.6283C38.0477 33.1534 37.8907 33.3798 37.7207 33.5264L39.0072 35.1979C39.5862 34.6982 39.9106 34.0519 40.1447 33.3168C40.3698 32.6096 40.5431 31.7093 40.7519 30.637L38.7575 30.2017Z" fill="#1E1F24"/>
</svg>
