<svg width="25" height="25" viewBox="0 0 25 25" fill="none" xmlns="http://www.w3.org/2000/svg">
<path d="M12.5 21.8198C17.6086 21.8198 21.75 17.6784 21.75 12.5698C21.75 7.46118 17.6086 3.31982 12.5 3.31982C7.39137 3.31982 3.25 7.46118 3.25 12.5698C3.25 17.6784 7.39137 21.8198 12.5 21.8198Z" stroke="black" stroke-width="1.5" stroke-linecap="round" stroke-linejoin="round"/>
<path d="M16.0291 9.0296C15.0937 8.09124 13.8241 7.5625 12.4991 7.55957C11.6771 7.55939 10.8677 7.76191 10.1426 8.14917C9.4175 8.53642 8.79908 9.09644 8.34206 9.77972C7.88504 10.463 7.60349 11.2485 7.52242 12.0665C7.44135 12.8845 7.56326 13.7099 7.87728 14.4696C8.19129 15.2293 8.68779 15.8999 9.32277 16.4219C9.95776 16.9439 10.7116 17.3014 11.5177 17.4626C12.3238 17.6237 13.1571 17.5836 13.944 17.3459C14.731 17.1082 15.4471 16.6801 16.0291 16.0996" stroke="black" stroke-width="1.5" stroke-linecap="round" stroke-linejoin="round"/>
</svg>
