<svg width="44" height="44" viewBox="0 0 44 44" fill="none" xmlns="http://www.w3.org/2000/svg">
<g clip-path="url(#clip0_495_728)">
<path fill-rule="evenodd" clip-rule="evenodd" d="M44 22C44 9.84973 34.1502 0 22 0C9.84973 0 0 9.84973 0 22C0 32.9808 8.04509 42.0823 18.5625 43.7327V28.3595H12.9766V22H18.5625V17.1531C18.5625 11.6394 21.8469 8.59375 26.8723 8.59375C29.2793 8.59375 31.797 9.02345 31.797 9.02345V14.4375H29.0228C26.2898 14.4375 25.4375 16.1334 25.4375 17.8731V22H31.539L30.5637 28.3595H25.4375V43.7327C35.955 42.0823 44 32.9808 44 22Z" fill="#1877F2"/>
</g>
<defs>
<clipPath id="clip0_495_728">
<rect width="44" height="44" fill="white"/>
</clipPath>
</defs>
</svg>
