<svg width="32" height="32" viewBox="0 0 32 32" fill="none" xmlns="http://www.w3.org/2000/svg">
<path d="M2.66699 23.3333H9.33366" stroke="#1E1F24" stroke-width="1.5" stroke-miterlimit="10" stroke-linecap="round" stroke-linejoin="round"/>
<path d="M29.3337 8.66669H22.667" stroke="#1E1F24" stroke-width="1.5" stroke-miterlimit="10" stroke-linecap="round" stroke-linejoin="round"/>
<path d="M17.334 23.3333H29.334" stroke="#1E1F24" stroke-width="1.5" stroke-miterlimit="10" stroke-linecap="round" stroke-linejoin="round"/>
<path d="M14.667 8.66669H2.66699" stroke="#1E1F24" stroke-width="1.5" stroke-miterlimit="10" stroke-linecap="round" stroke-linejoin="round"/>
<path d="M13 27C10.7909 27 9 25.2092 9 23C9 20.7908 10.7909 19 13 19C15.2092 19 17 20.7908 17 23C17 25.2092 15.2092 27 13 27Z" stroke="#1E1F24" stroke-width="1.5" stroke-miterlimit="10" stroke-linecap="round" stroke-linejoin="round"/>
<path d="M18.667 12.5332C20.8762 12.5332 22.667 10.7423 22.667 8.5332C22.667 6.32407 20.8762 4.5332 18.667 4.5332C16.4578 4.5332 14.667 6.32407 14.667 8.5332C14.667 10.7423 16.4578 12.5332 18.667 12.5332Z" stroke="#1E1F24" stroke-width="1.5" stroke-miterlimit="10" stroke-linecap="round" stroke-linejoin="round"/>
</svg>
