<svg width="64" height="64" viewBox="0 0 64 64" fill="none" xmlns="http://www.w3.org/2000/svg">
<path d="M56.9999 44.7L35.0019 32L56.9999 19.298C57.4619 19.036 57.7699 18.548 57.7699 17.988C57.7699 17.16 57.0979 16.488 56.2699 16.488C55.9859 16.488 55.7199 16.568 55.4939 16.704L55.4999 16.7L33.4999 29.4V3.998C33.4999 3.17 32.8279 2.498 31.9999 2.498C31.1719 2.498 30.4999 3.17 30.4999 3.998V29.398L8.50193 16.698C8.28193 16.564 8.01593 16.486 7.73193 16.486C6.90393 16.486 6.23193 17.158 6.23193 17.986C6.23193 18.546 6.53993 19.034 6.99393 19.292L7.00193 19.296L28.9999 31.998L7.00193 44.698C6.54993 44.962 6.25193 45.446 6.25193 45.998C6.25193 46.828 6.92393 47.5 7.75393 47.5C8.02993 47.498 8.28793 47.426 8.51193 47.296L8.50393 47.3L30.5019 34.598V59.998C30.5019 60.826 31.1739 61.498 32.0019 61.498C32.8299 61.498 33.5019 60.826 33.5019 59.998V34.596L55.5019 47.298C55.7159 47.424 55.9759 47.498 56.2499 47.498C56.8039 47.498 57.2859 47.2 57.5479 46.756L57.5519 46.748C57.6779 46.532 57.7519 46.274 57.7519 45.998C57.7519 45.444 57.4519 44.962 57.0079 44.702L56.9999 44.7Z" fill="#FFC8D0"/>
</svg>
