<svg width="22" height="22" viewBox="0 0 22 22" fill="none" xmlns="http://www.w3.org/2000/svg">
<path d="M11.0002 3.36011L10.4672 3.94924C10.4706 3.95319 10.474 3.95708 10.4773 3.96095L11.0002 3.36011ZM12.4498 6.2256C12.7387 6.55731 13.2071 6.55721 13.4958 6.22538C13.7847 5.89355 13.7846 5.35564 13.4957 5.02393L12.4498 6.2256ZM8.46164 17.8832C6.96681 16.5298 5.33227 15.2082 4.03555 13.5311C2.7642 11.8869 1.87734 9.96835 1.87734 7.47927H0.397949C0.397949 10.4986 1.49319 12.802 2.9294 14.6594C4.34025 16.484 6.13873 17.9436 7.54577 19.2176L8.46164 17.8832ZM1.87734 7.47927C1.87734 5.0429 3.076 2.99977 4.7122 2.14078C6.30176 1.30629 8.43759 1.52728 10.4672 3.94924L11.5332 2.77097C9.12485 -0.102794 6.32939 -0.576426 4.09717 0.59547C1.91157 1.74289 0.397949 4.40721 0.397949 7.47927H1.87734ZM7.54577 19.2176C8.05097 19.675 8.5933 20.1628 9.1429 20.5316C9.69234 20.9003 10.3193 21.2 11.0002 21.2V19.5009C10.6949 19.5009 10.3356 19.3642 9.8893 19.0646C9.44322 18.7652 8.98044 18.353 8.46164 17.8832L7.54577 19.2176ZM14.4547 19.2176C15.8617 17.9436 17.6602 16.484 19.0711 14.6594C20.5073 12.802 21.6025 10.4986 21.6025 7.47927H20.1231C20.1231 9.96835 19.2363 11.8869 17.9649 13.5311C16.6681 15.2082 15.0336 16.5298 13.5388 17.8832L14.4547 19.2176ZM21.6025 7.47927C21.6025 4.40721 20.0889 1.74289 17.9032 0.59547C15.671 -0.576426 12.8756 -0.102794 10.4672 2.77097L11.5332 3.94924C13.5628 1.52728 15.6987 1.30629 17.2882 2.14078C18.9244 2.99977 20.1231 5.0429 20.1231 7.47927H21.6025ZM13.5388 17.8832C13.02 18.353 12.5572 18.7652 12.1111 19.0646C11.6649 19.3642 11.3056 19.5009 11.0002 19.5009V21.2C11.6811 21.2 12.3081 20.9003 12.8575 20.5316C13.4072 20.1628 13.9494 19.675 14.4547 19.2176L13.5388 17.8832ZM10.4773 3.96095L12.4498 6.2256L13.4957 5.02393L11.5231 2.75928L10.4773 3.96095Z" fill="#1E1F24"/>
</svg>
