<svg width="22" height="22" viewBox="0 0 22 22" fill="none" xmlns="http://www.w3.org/2000/svg">
<path fill-rule="evenodd" clip-rule="evenodd" d="M0.550352 6.75351C6.31809e-08 7.75785 0 8.96936 0 11.3924V13.003C0 17.1332 1.26362e-07 19.1985 1.24186 20.4815C2.48374 21.7647 4.48249 21.7647 8.48 21.7647H12.72C16.7175 21.7647 18.7163 21.7647 19.9581 20.4815C21.2 19.1985 21.2 17.1332 21.2 13.003V11.3924C21.2 8.96936 21.2 7.75785 20.6497 6.75351C20.0993 5.74918 19.0939 5.12586 17.083 3.87921L14.963 2.56494C12.8372 1.24715 11.7744 0.588257 10.6 0.588257C9.42563 0.588257 8.36275 1.24715 6.23707 2.56494L4.11707 3.87922C2.10617 5.12586 1.1007 5.74918 0.550352 6.75351ZM9.805 17.5294C9.805 17.968 10.1609 18.3235 10.6 18.3235C11.0391 18.3235 11.395 17.968 11.395 17.5294V14.353C11.395 13.9144 11.0391 13.5588 10.6 13.5588C10.1609 13.5588 9.805 13.9144 9.805 14.353V17.5294Z" fill="#E21D62"/>
</svg>
