<svg width="23" height="23" viewBox="0 0 23 23" fill="none" xmlns="http://www.w3.org/2000/svg">
<path d="M1 11.8185C1 9.39222 1 8.17909 1.55047 7.17343C2.10094 6.16777 3.10662 5.54361 5.11795 4.29532L7.23841 2.97931C9.36454 1.65977 10.4276 1 11.6023 1C12.7769 1 13.84 1.65977 15.9662 2.97931L18.0866 4.29531C20.098 5.54361 21.1036 6.16777 21.6541 7.17343C22.2045 8.17909 22.2045 9.39222 22.2045 11.8185V13.4312C22.2045 17.5669 22.2045 19.6349 20.9624 20.9197C19.7203 22.2045 17.7211 22.2045 13.7227 22.2045H9.48182C5.48345 22.2045 3.48427 22.2045 2.24213 20.9197C1 19.6349 1 17.5669 1 13.4312V11.8185Z" fill="white" stroke="#1E1F24" stroke-width="1.5"/>
<path d="M11.6021 14.783V17.9636" stroke="#1E1F24" stroke-width="1.5" stroke-linecap="round"/>
</svg>
