<svg width="55" height="55" viewBox="0 0 55 55" fill="none" xmlns="http://www.w3.org/2000/svg">
<circle cx="27.4521" cy="27.4521" r="27.4521" fill="#EFF0F3"/>
<path d="M34.874 24.3278V23.5058C34.874 18.9923 31.3486 15.3333 27 15.3333C22.6513 15.3333 19.126 18.9923 19.126 23.5058V24.3278C19.126 25.3144 18.8447 26.2788 18.3174 27.0996L17.0254 29.1111C15.8453 30.9484 16.7462 33.4457 18.7988 34.0267C24.1682 35.5467 29.8319 35.5467 35.2012 34.0267C37.2538 33.4457 38.1547 30.9484 36.9745 29.1111L35.6826 27.0996C35.1554 26.2788 34.874 25.3144 34.874 24.3278Z" stroke="#1E1F24" stroke-width="1.5"/>
<path d="M21.75 35.1667C22.5142 37.2058 24.5762 38.6667 27 38.6667C29.4237 38.6667 31.4858 37.2058 32.25 35.1667" stroke="#1E1F24" stroke-width="1.5" stroke-linecap="round"/>
</svg>
