<svg width="22" height="23" viewBox="0 0 22 23" fill="none" xmlns="http://www.w3.org/2000/svg">
<path fill-rule="evenodd" clip-rule="evenodd" d="M9.31941 17.159C5.15031 17.159 1.77065 13.643 1.77065 9.29888C1.77065 4.95472 5.15031 1.4317 9.31941 1.4317C13.4885 1.4317 16.8689 4.95472 16.8689 9.29888C16.8689 13.643 13.4885 17.159 9.31941 17.159ZM21.4012 21.2295L15.927 15.5239C17.36 13.8746 18.2409 11.699 18.2409 9.29888C18.2409 4.16169 14.2468 0 9.31941 0C4.39206 0 0.397949 4.16169 0.397949 9.29888C0.397949 14.4291 4.39206 18.5907 9.31941 18.5907C11.4484 18.5907 13.401 17.8118 14.9348 16.5134L20.4308 22.2401C20.6993 22.5208 21.1334 22.5208 21.4012 22.2401C21.6696 21.9664 21.6696 21.5102 21.4012 21.2295Z" fill="#1E1F24"/>
</svg>
