<svg width="17" height="16" viewBox="0 0 17 16" fill="none" xmlns="http://www.w3.org/2000/svg">
<path d="M16.1374 6.03226C16.0183 5.67756 15.7112 5.41895 15.3416 5.36241L11.0393 4.70499L9.10683 0.588301C8.94203 0.237405 8.58986 0.0140381 8.20297 0.0140381C7.81581 0.0140381 7.4639 0.237405 7.2991 0.588301L5.36639 4.70524L1.06411 5.36267C0.694452 5.41921 0.387418 5.67756 0.268509 6.03251C0.1496 6.38747 0.239352 6.77842 0.500749 7.04666L3.64259 10.2684L2.89845 14.8262C2.8371 15.2035 2.99708 15.5828 3.30918 15.8033C3.62104 16.0239 4.03278 16.0462 4.36821 15.8611L8.20322 13.7403L12.0382 15.8611C12.1896 15.9448 12.3562 15.9859 12.522 15.9859C12.7238 15.9859 12.9256 15.9245 13.0973 15.8033C13.4094 15.583 13.5691 15.2037 13.5077 14.8262L12.7636 10.2684L15.9057 7.04666C16.1666 6.77842 16.2563 6.38746 16.1374 6.03226Z" fill="#FFD84D"/>
</svg>
