<svg width="44" height="44" viewBox="0 0 44 44" fill="none" xmlns="http://www.w3.org/2000/svg">
<path d="M8.70605 27.8759L8.81291 28.1776C8.79923 28.143 8.76013 28.0375 8.70605 27.8759ZM12.9347 21.039C13.1223 19.418 13.7596 18.5103 14.9604 17.5799C16.6786 16.3198 18.8248 17.0326 18.8248 17.0326V12.8039C19.3466 12.79 19.8686 12.8223 20.3847 12.9004V18.3422C20.3847 18.3422 18.2391 17.6294 16.5209 18.8902C15.3207 19.82 14.6822 20.7282 14.4952 22.3493C14.4893 23.2296 14.6477 24.3803 15.3767 25.3752C15.1965 25.2788 15.0127 25.1689 14.8255 25.0455C13.2194 23.9202 12.9269 22.2321 12.9347 21.039ZM29.2466 4.98519C28.0646 3.63385 27.6176 2.26948 27.4561 1.31104H28.9429C28.9429 1.31104 28.6465 3.82411 30.807 6.29549L30.837 6.32872C30.2547 5.94654 29.7207 5.49544 29.2466 4.98519ZM36.4092 8.81638V14.1488C36.4092 14.1488 34.5118 14.0712 33.1077 13.6985C31.1472 13.1773 29.887 12.3778 29.887 12.3778C29.887 12.3778 29.0166 11.8077 28.9462 11.768V22.7794C28.9462 23.3925 28.7853 24.9237 28.2946 26.2007C27.6541 27.8713 26.6657 28.9679 26.4839 29.192C26.4839 29.192 25.2818 30.6743 23.161 31.6725C21.2493 32.573 19.5709 32.5502 19.0692 32.573C19.0692 32.573 16.1677 32.6929 13.5569 30.9226C12.9924 30.5324 12.4654 30.0905 11.9828 29.6025L11.9958 29.6123C14.6073 31.3826 17.508 31.2627 17.508 31.2627C18.0104 31.2399 19.6888 31.2627 21.5998 30.3622C23.7187 29.364 24.9228 27.8817 24.9228 27.8817C25.1026 27.6576 26.0956 26.561 26.7335 24.8898C27.2228 23.6134 27.385 22.0815 27.385 21.4684V10.4583C27.4554 10.4987 28.3252 11.0688 28.3252 11.0688C28.3252 11.0688 29.586 11.869 31.5466 12.3895C32.9513 12.7622 34.848 12.8398 34.848 12.8398V8.66131C35.497 8.81312 36.0502 8.85417 36.4092 8.81638Z" fill="#EE1D52"/>
<path d="M34.8493 8.66131V12.8385C34.8493 12.8385 32.9526 12.7609 31.5478 12.3882C29.5873 11.867 28.3265 11.0675 28.3265 11.0675C28.3265 11.0675 27.4567 10.4974 27.3863 10.457V21.4697C27.3863 22.0828 27.2254 23.6147 26.7347 24.8911C26.0942 26.5623 25.1058 27.6589 24.924 27.883C24.924 27.883 23.7213 29.3654 21.6011 30.3635C19.69 31.264 18.0116 31.2412 17.5093 31.264C17.5093 31.264 14.6085 31.3839 11.997 29.6136L11.984 29.6038C11.7083 29.3253 11.4488 29.0312 11.2067 28.7229C10.3733 27.6628 9.86253 26.4092 9.73417 26.0515C9.73394 26.05 9.73394 26.0485 9.73417 26.0469C9.52762 25.4254 9.09368 23.9326 9.15297 22.4868C9.25788 19.9359 10.1179 18.3702 10.3453 17.978C10.9476 16.9084 11.7309 15.9514 12.6603 15.1496C13.4805 14.4577 14.4102 13.9072 15.4112 13.5207C16.4934 13.0668 17.6521 12.8236 18.8254 12.8039V17.0326C18.8254 17.0326 16.6792 16.3224 14.9617 17.5799C13.7608 18.5103 13.1236 19.418 12.9359 21.039C12.9281 22.2321 13.2207 23.9202 14.8255 25.0461C15.0127 25.1699 15.1964 25.2798 15.3767 25.3758C15.6571 25.7561 15.9983 26.0874 16.3866 26.3564C17.9543 27.3918 19.2678 27.4641 20.9476 26.7917C22.0676 26.3421 22.9107 25.3289 23.3016 24.2063C23.5473 23.5052 23.544 22.7996 23.544 22.0698V1.31104H27.4534C27.615 2.26948 28.062 3.63385 29.2439 4.98519C29.718 5.49544 30.252 5.94654 30.8344 6.32872C31.0064 6.51441 31.886 7.43246 33.0151 7.99606C33.599 8.28739 34.2144 8.5106 34.8493 8.66131Z" fill="black"/>
<path d="M8.17773 24.7529V24.7562L8.27417 25.0305C8.26309 24.9986 8.22725 24.9015 8.17773 24.7529Z" fill="#69C9D0"/>
<path d="M15.4114 13.5208C14.4104 13.9073 13.4807 14.4578 12.6605 15.1497C11.7307 15.9533 10.9476 16.9123 10.3461 17.984C10.1187 18.3749 9.25869 19.9419 9.15379 22.4928C9.09449 23.9386 9.52843 25.4314 9.73498 26.0529C9.73476 26.0545 9.73476 26.056 9.73498 26.0575C9.86529 26.412 10.3742 27.6656 11.2075 28.7289C11.4496 29.0372 11.7091 29.3313 11.9848 29.6098C11.1014 28.9989 10.3136 28.2602 9.64702 27.418C8.82084 26.367 8.31131 25.1264 8.1784 24.7602C8.17824 24.7576 8.17824 24.755 8.1784 24.7524V24.7479C7.9712 24.1269 7.53596 22.6335 7.59655 21.1858C7.70145 18.6349 8.56151 17.0692 8.78891 16.677C9.39022 15.6052 10.1733 14.6461 11.1033 13.8427C11.9233 13.1506 12.853 12.6 13.8542 12.2138C14.4786 11.9547 15.1291 11.7635 15.7945 11.6436C16.7972 11.4686 17.8214 11.4534 18.8288 11.5987V12.8041C17.6545 12.8233 16.4945 13.0666 15.4114 13.5208Z" fill="#69C9D0"/>
<path d="M27.4563 1.31094H23.5469V22.0704C23.5469 22.8001 23.5469 23.5038 23.3045 24.2068C22.9097 25.3288 22.0698 26.342 20.9504 26.7916C19.27 27.4666 17.9565 27.3917 16.3895 26.3563C16.0005 26.0885 15.6584 25.7583 15.377 25.379C16.712 26.0912 17.907 26.0788 19.3873 25.4846C20.5061 25.035 21.3472 24.0218 21.7408 22.8992C21.9871 22.1981 21.9838 21.4924 21.9838 20.7633V0H27.382C27.382 0 27.3214 0.516038 27.4563 1.31094ZM34.8489 7.506V8.66122C34.2151 8.51027 33.6008 8.28707 33.018 7.99597C31.8888 7.43237 31.0092 6.51432 30.8372 6.32862C31.0368 6.45967 31.2439 6.5789 31.4575 6.68568C32.8304 7.37112 34.1823 7.57572 34.8489 7.506Z" fill="#69C9D0"/>
<path d="M27.5916 40.6765C27.5912 40.8251 27.6132 40.9729 27.6568 41.115C27.6589 41.125 27.662 41.1348 27.6659 41.1443C27.77 41.4804 27.979 41.7743 28.2623 41.983C28.5455 42.1918 28.8882 42.3043 29.2401 42.3041V43.9714C28.4282 43.9714 27.847 44.0001 26.9596 43.4769C25.9536 42.8801 25.3867 41.7887 25.3867 40.6556C25.3867 39.4867 26.0213 38.3159 27.0971 37.7516C27.8789 37.3425 28.4712 37.3398 29.242 37.3398V39.0065C28.8046 39.0065 28.3852 39.1803 28.0759 39.4895C27.7667 39.7988 27.5929 40.2183 27.5929 40.6556L27.5916 40.6765Z" fill="#69C9D0"/>
<path d="M30.9014 40.6765C30.9015 40.8251 30.8795 40.9729 30.8362 41.115C30.8362 41.1248 30.8304 41.1345 30.8271 41.1443C30.7228 41.4803 30.5138 41.7741 30.2305 41.9828C29.9473 42.1915 29.6047 42.3041 29.2529 42.3041V43.9714C30.0641 43.9714 30.646 44.0001 31.5301 43.4769C32.5394 42.8801 33.1076 41.7887 33.1076 40.6556C33.1076 39.4867 32.473 38.3159 31.3972 37.7516C30.6153 37.3425 30.0231 37.3398 29.2529 37.3398V39.0065C29.6902 39.0067 30.1095 39.1805 30.4186 39.4898C30.7277 39.799 30.9014 40.2184 30.9014 40.6556V40.6765Z" fill="#EE1D52"/>
<path d="M3.72266 35.8276H9.82845L9.26419 37.5074H7.66396V43.9363H5.7008V37.5074H3.72266V35.8276ZM19.9042 35.8276V37.5074H21.8823V43.9363H23.8481V37.5074H25.4457L26.01 35.8276H19.9042ZM11.157 37.7419C11.3451 37.7418 11.529 37.6859 11.6854 37.5812C11.8417 37.4766 11.9636 37.328 12.0354 37.1541C12.1073 36.9802 12.126 36.7889 12.0892 36.6044C12.0524 36.4199 11.9617 36.2505 11.8285 36.1175C11.6954 35.9846 11.5258 35.8941 11.3413 35.8575C11.1567 35.8209 10.9655 35.8399 10.7917 35.912C10.6179 35.9841 10.4694 36.1062 10.365 36.2627C10.2606 36.4192 10.2049 36.6032 10.205 36.7913C10.205 36.9162 10.2297 37.04 10.2775 37.1554C10.3254 37.2708 10.3955 37.3757 10.4839 37.464C10.5724 37.5522 10.6773 37.6222 10.7928 37.6699C10.9083 37.7176 11.032 37.7421 11.157 37.7419ZM10.205 43.9363H12.1324V38.4143H10.205V43.9363ZM19.0663 37.6937H16.8119L14.8689 39.6367V35.8342H12.954L12.9481 43.9363H14.8813V41.8253L15.4827 41.2773L17.3592 43.9337H19.426L16.7076 40.0491L19.0663 37.6937ZM37.5557 40.0504L39.9124 37.6937H37.6586L35.715 39.6367V35.8342H33.8007L33.7916 43.9363H35.7254V41.8253L36.3327 41.2773L38.2092 43.9337H40.2766L37.5557 40.0504ZM32.5999 40.6544C32.5999 42.4853 31.0954 43.9702 29.2398 43.9702C27.3841 43.9702 25.8797 42.4853 25.8797 40.6544C25.8797 38.8235 27.3841 37.3386 29.2398 37.3386C31.0954 37.3386 32.5999 38.8242 32.5999 40.6557V40.6544ZM30.8882 40.6544C30.8882 40.3284 30.7916 40.0097 30.6104 39.7386C30.4293 39.4675 30.1718 39.2562 29.8706 39.1314C29.5694 39.0067 29.238 38.974 28.9182 39.0376C28.5984 39.1012 28.3047 39.2582 28.0742 39.4888C27.8436 39.7193 27.6866 40.013 27.623 40.3328C27.5594 40.6526 27.592 40.984 27.7168 41.2852C27.8416 41.5865 28.0529 41.8439 28.324 42.025C28.595 42.2062 28.9138 42.3029 29.2398 42.3029C29.6768 42.3029 30.0959 42.1294 30.405 41.8205C30.7141 41.5116 30.8879 41.0927 30.8882 40.6557V40.6544Z" fill="black"/>
</svg>
