<svg width="43" height="43" viewBox="0 0 43 43" fill="none" xmlns="http://www.w3.org/2000/svg">
<path d="M22.8438 0C11.6906 0 2.6875 9.00312 2.6875 20.1562C2.6875 24.725 4.16562 29.025 6.9875 32.5188L4.16562 41.1188C4.03125 41.6563 4.16563 42.1938 4.56875 42.5969C4.70313 42.8656 5.10625 43 5.375 43C5.50938 43 5.77813 43 5.9125 42.8656L15.1844 38.7C17.6031 39.775 20.1562 40.3125 22.8438 40.3125C33.9969 40.3125 43 31.3094 43 20.1562C43 9.00312 33.9969 0 22.8438 0Z" fill="#25D366"/>
<path d="M34.5344 27.5469C33.9969 29.1594 31.9812 30.5031 30.2344 30.7719C29.8312 30.9062 29.4281 30.9062 28.8906 30.9062C27.8156 30.9062 26.2031 30.6375 23.3812 29.4281C20.1562 28.0844 16.9312 25.2625 14.3781 21.6344V21.5C13.5719 20.2906 12.0938 18.0063 12.0938 15.5875C12.0938 12.6313 13.5719 11.1531 14.1094 10.4813C14.7812 9.80938 15.7219 9.40625 16.7969 9.40625C17.0656 9.40625 17.2 9.40625 17.4688 9.40625C18.4094 9.40625 19.0812 9.675 19.7531 11.0187L20.2906 12.0938C20.6938 13.1688 21.2312 14.3781 21.3656 14.5125C21.7687 15.3188 21.7687 15.9906 21.3656 16.6625C21.2312 17.0656 20.9625 17.3344 20.6937 17.6031C20.5594 17.8719 20.425 18.0062 20.2906 18.0062C20.1563 18.1406 20.1562 18.1406 20.0219 18.275C20.425 18.9469 21.2313 20.1562 22.3063 21.0969C23.9188 22.575 25.1281 22.9781 25.8 23.2469C26.0688 22.9781 26.3375 22.4406 26.7406 22.0375L26.875 21.7688C27.5469 20.8281 28.6219 20.5594 29.6969 20.9625C30.2344 21.2313 33.1906 22.575 33.1906 22.575L33.4594 22.7094C33.8625 22.9781 34.4 23.1125 34.6687 23.65C35.2062 24.8594 34.8031 26.6063 34.5344 27.5469Z" fill="white"/>
</svg>
